<svg preserveAspectRatio="none" width="100%" height="100%" overflow="visible" style="display: block;" viewBox="0 0 32.5497 34.4287" fill="none" xmlns="http://www.w3.org/2000/svg">
<g id="Group 2246">
<path id="Vector" d="M16.2761 0C7.28724 0 0 6.74039 0 15.0554C0 21.1953 2.57067 24.1272 6.09345 26.8004L6.11054 26.8078V34.0145C6.11054 34.3538 6.49871 34.5491 6.77213 34.3465L12.9437 29.7617L13.0755 29.8203C14.1106 30.0107 15.1799 30.1108 16.2736 30.1108C25.2624 30.1108 32.5497 23.3704 32.5497 15.0554C32.5497 6.74039 25.2624 0 16.2736 0M10.8198 18.8687C12.4164 18.8687 13.7811 17.9142 14.1912 16.4372H16.5519C15.9758 19.2764 13.764 21.1391 10.8222 21.1391C7.40198 21.1391 4.68971 18.588 4.68971 15.0383C4.68971 11.4887 7.40198 8.93755 10.8222 8.93755C13.7957 8.93755 16.0197 10.8369 16.569 13.7249H14.2156C13.8567 12.1552 12.4457 11.1762 10.8222 11.1762C8.52253 11.1762 6.99184 12.8168 6.99184 15.0408C6.99184 17.2648 8.73248 18.8736 10.8222 18.8736M26.3683 20.9047H24.2054V16.027C24.2054 14.9041 23.5511 14.3011 22.5453 14.3011C21.4223 14.3011 20.7021 14.9871 20.7021 16.3786V20.9047H18.5391V8.97417H20.7021V13.4613C21.2221 12.6727 22.0595 12.287 23.1995 12.287C24.1224 12.287 24.8767 12.5897 25.4626 13.2098C26.0656 13.8299 26.3683 14.6673 26.3683 15.7585V20.9047Z" fill="var(--fill-0, #231F20)"/>
</g>
</svg>
